<mxfile host="65bd71144e">
    <diagram id="TioMUO9g5R-BM-FSyUMI" name="Page-1">
        <mxGraphModel dx="768" dy="451" grid="1" gridSize="10" guides="1" tooltips="1" connect="1" arrows="1" fold="1" page="1" pageScale="1" pageWidth="850" pageHeight="1100" math="0" shadow="0">
            <root>
                <mxCell id="0"/>
                <mxCell id="1" parent="0"/>
                <mxCell id="35" value="" style="edgeStyle=none;html=1;strokeColor=#FF0000;fontSize=11;fontColor=#FFFFFF;endArrow=classic;endFill=1;entryX=0;entryY=0.5;entryDx=0;entryDy=0;" parent="1" target="23" edge="1">
                    <mxGeometry relative="1" as="geometry">
                        <mxPoint x="80" y="100" as="sourcePoint"/>
                        <mxPoint x="150" y="110" as="targetPoint"/>
                    </mxGeometry>
                </mxCell>
                <mxCell id="2" value="Visiteur" style="shape=umlActor;verticalLabelPosition=bottom;verticalAlign=top;html=1;outlineConnect=0;fillColor=#fff2cc;strokeColor=#FF0000;" parent="1" vertex="1">
                    <mxGeometry x="40" y="60" width="30" height="60" as="geometry"/>
                </mxCell>
                <mxCell id="8" value="Consultant" style="shape=umlActor;verticalLabelPosition=bottom;verticalAlign=top;html=1;outlineConnect=0;fillColor=#fff2cc;strokeColor=#FF0000;" parent="1" vertex="1">
                    <mxGeometry x="40" y="460" width="30" height="60" as="geometry"/>
                </mxCell>
                <mxCell id="28" style="edgeStyle=none;html=1;strokeColor=#FF0000;fontSize=11;fontColor=#FFFFFF;endArrow=block;endFill=0;" parent="1" source="9" edge="1">
                    <mxGeometry relative="1" as="geometry">
                        <mxPoint x="55" y="150" as="targetPoint"/>
                    </mxGeometry>
                </mxCell>
                <mxCell id="9" value="Client" style="shape=umlActor;verticalLabelPosition=bottom;verticalAlign=top;html=1;outlineConnect=0;fillColor=#fff2cc;strokeColor=#FF0000;strokeWidth=1;" parent="1" vertex="1">
                    <mxGeometry x="40" y="260" width="30" height="60" as="geometry"/>
                </mxCell>
                <mxCell id="10" value="Admin" style="shape=umlActor;verticalLabelPosition=bottom;verticalAlign=top;html=1;outlineConnect=0;fillColor=#fff2cc;strokeColor=#FF0000;" parent="1" vertex="1">
                    <mxGeometry x="40" y="700" width="30" height="60" as="geometry"/>
                </mxCell>
                <mxCell id="20" value="consulter les hôtels" style="ellipse;whiteSpace=wrap;html=1;strokeColor=#FF0000;fillColor=#fff2cc;fontColor=#000000;" parent="1" vertex="1">
                    <mxGeometry x="410" y="140" width="140" height="40" as="geometry"/>
                </mxCell>
                <mxCell id="22" value="ajouter au panier" style="ellipse;whiteSpace=wrap;html=1;strokeColor=#FF0000;fillColor=#fff2cc;fontColor=#000000;" parent="1" vertex="1">
                    <mxGeometry x="410" y="20" width="140" height="40" as="geometry"/>
                </mxCell>
                <mxCell id="23" value="afficher la liste des hôtels" style="ellipse;whiteSpace=wrap;html=1;strokeColor=#FF0000;fillColor=#fff2cc;fontColor=#000000;" parent="1" vertex="1">
                    <mxGeometry x="170" y="80" width="140" height="40" as="geometry"/>
                </mxCell>
                <mxCell id="24" value="valider la réservation" style="ellipse;whiteSpace=wrap;html=1;strokeColor=#FF0000;fillColor=#fff2cc;fontColor=#000000;" parent="1" vertex="1">
                    <mxGeometry x="170" y="280" width="140" height="40" as="geometry"/>
                </mxCell>
                <mxCell id="25" value="&lt;span style=&quot;color: rgb(255, 255, 255);&quot;&gt;extend&lt;/span&gt;" style="edgeStyle=none;html=1;fontSize=11;fontColor=#000000;dashed=1;strokeColor=#FF0000;entryX=0;entryY=0.5;entryDx=0;entryDy=0;exitX=1;exitY=0;exitDx=0;exitDy=0;" parent="1" source="23" target="22" edge="1">
                    <mxGeometry x="0.1001" y="12" relative="1" as="geometry">
                        <mxPoint x="290" y="90" as="sourcePoint"/>
                        <mxPoint x="340" y="90" as="targetPoint"/>
                        <Array as="points"/>
                        <mxPoint as="offset"/>
                    </mxGeometry>
                </mxCell>
                <mxCell id="27" value="&lt;span style=&quot;color: rgb(255, 255, 255);&quot;&gt;extend&lt;/span&gt;" style="edgeStyle=none;html=1;fontSize=11;fontColor=#000000;dashed=1;strokeColor=#FF0000;entryX=0;entryY=0.5;entryDx=0;entryDy=0;exitX=1;exitY=1;exitDx=0;exitDy=0;" parent="1" source="23" target="20" edge="1">
                    <mxGeometry x="-0.0945" y="13" relative="1" as="geometry">
                        <mxPoint x="279.37510818549356" y="112.91298873881865" as="sourcePoint"/>
                        <mxPoint x="360" y="87.09" as="targetPoint"/>
                        <Array as="points"/>
                        <mxPoint as="offset"/>
                    </mxGeometry>
                </mxCell>
                <mxCell id="30" value="confirmer son choix" style="ellipse;whiteSpace=wrap;html=1;strokeColor=#FF0000;fillColor=#fff2cc;fontColor=#000000;" parent="1" vertex="1">
                    <mxGeometry x="410" y="280" width="140" height="40" as="geometry"/>
                </mxCell>
                <mxCell id="31" value="afficher les réservations" style="ellipse;whiteSpace=wrap;html=1;strokeColor=#FF0000;fillColor=#fff2cc;fontColor=#000000;" parent="1" vertex="1">
                    <mxGeometry x="170" y="480" width="140" height="40" as="geometry"/>
                </mxCell>
                <mxCell id="33" value="&lt;span style=&quot;color: rgb(255, 255, 255);&quot;&gt;extend&lt;/span&gt;" style="edgeStyle=none;html=1;fontSize=11;fontColor=#000000;dashed=1;strokeColor=#FF0000;entryX=0.5;entryY=1;entryDx=0;entryDy=0;exitX=0.5;exitY=0;exitDx=0;exitDy=0;" parent="1" source="20" target="22" edge="1">
                    <mxGeometry y="10" relative="1" as="geometry">
                        <mxPoint x="424.99510818549356" y="120.00298873881863" as="sourcePoint"/>
                        <mxPoint x="505.62" y="147.09" as="targetPoint"/>
                        <Array as="points"/>
                        <mxPoint as="offset"/>
                    </mxGeometry>
                </mxCell>
                <mxCell id="34" value="&lt;span style=&quot;color: rgb(255, 255, 255);&quot;&gt;include&lt;/span&gt;" style="edgeStyle=none;html=1;fontSize=11;fontColor=#000000;dashed=1;strokeColor=#FF0000;entryX=0.5;entryY=0;entryDx=0;entryDy=0;" parent="1" target="41" edge="1">
                    <mxGeometry x="-0.0945" y="13" relative="1" as="geometry">
                        <mxPoint x="240" y="320" as="sourcePoint"/>
                        <mxPoint x="440" y="299.65999999999997" as="targetPoint"/>
                        <Array as="points"/>
                        <mxPoint as="offset"/>
                    </mxGeometry>
                </mxCell>
                <mxCell id="36" value="&lt;span style=&quot;color: rgb(255, 255, 255);&quot;&gt;include&lt;/span&gt;" style="edgeStyle=none;html=1;fontSize=11;fontColor=#000000;dashed=1;strokeColor=#FF0000;entryX=0;entryY=0.5;entryDx=0;entryDy=0;" parent="1" target="30" edge="1">
                    <mxGeometry x="-0.0945" y="13" relative="1" as="geometry">
                        <mxPoint x="310" y="300" as="sourcePoint"/>
                        <mxPoint x="440.62" y="347.09000000000003" as="targetPoint"/>
                        <Array as="points"/>
                        <mxPoint as="offset"/>
                    </mxGeometry>
                </mxCell>
                <mxCell id="37" value="" style="edgeStyle=none;html=1;strokeColor=#FF0000;fontSize=11;fontColor=#FFFFFF;endArrow=classic;endFill=1;entryX=0;entryY=0.5;entryDx=0;entryDy=0;" parent="1" target="24" edge="1">
                    <mxGeometry relative="1" as="geometry">
                        <mxPoint x="80" y="299.5" as="sourcePoint"/>
                        <mxPoint x="140" y="300" as="targetPoint"/>
                    </mxGeometry>
                </mxCell>
                <mxCell id="38" value="" style="edgeStyle=none;html=1;strokeColor=#FF0000;fontSize=11;fontColor=#FFFFFF;endArrow=classic;endFill=1;entryX=0;entryY=0.5;entryDx=0;entryDy=0;" parent="1" target="31" edge="1">
                    <mxGeometry relative="1" as="geometry">
                        <mxPoint x="80" y="499.5" as="sourcePoint"/>
                        <mxPoint x="160" y="499.5" as="targetPoint"/>
                    </mxGeometry>
                </mxCell>
                <mxCell id="40" value="" style="edgeStyle=none;html=1;strokeColor=#FF0000;fontSize=11;fontColor=#FFFFFF;endArrow=classic;endFill=1;entryX=0;entryY=0.5;entryDx=0;entryDy=0;" parent="1" target="48" edge="1">
                    <mxGeometry relative="1" as="geometry">
                        <mxPoint x="80" y="739.5" as="sourcePoint"/>
                        <mxPoint x="170" y="740" as="targetPoint"/>
                    </mxGeometry>
                </mxCell>
                <mxCell id="41" value="authentification" style="ellipse;whiteSpace=wrap;html=1;strokeColor=#FF0000;fillColor=#fff2cc;fontColor=#000000;" parent="1" vertex="1">
                    <mxGeometry x="170" y="380" width="140" height="40" as="geometry"/>
                </mxCell>
                <mxCell id="42" value="&lt;span style=&quot;color: rgb(255, 255, 255);&quot;&gt;include&lt;/span&gt;" style="edgeStyle=none;html=1;fontSize=11;fontColor=#000000;dashed=1;strokeColor=#FF0000;exitX=0.5;exitY=0;exitDx=0;exitDy=0;entryX=0.5;entryY=1;entryDx=0;entryDy=0;" parent="1" target="41" edge="1">
                    <mxGeometry x="-0.0945" y="13" relative="1" as="geometry">
                        <mxPoint x="240" y="480" as="sourcePoint"/>
                        <mxPoint x="450" y="499.65999999999997" as="targetPoint"/>
                        <Array as="points"/>
                        <mxPoint as="offset"/>
                    </mxGeometry>
                </mxCell>
                <mxCell id="43" value="consulter les réservations" style="ellipse;whiteSpace=wrap;html=1;strokeColor=#FF0000;fillColor=#fff2cc;fontColor=#000000;" parent="1" vertex="1">
                    <mxGeometry x="405" y="540" width="150" height="40" as="geometry"/>
                </mxCell>
                <mxCell id="44" value="gestion des réservations" style="ellipse;whiteSpace=wrap;html=1;strokeColor=#FF0000;fillColor=#fff2cc;fontColor=#000000;" parent="1" vertex="1">
                    <mxGeometry x="405" y="420" width="150" height="40" as="geometry"/>
                </mxCell>
                <mxCell id="45" value="&lt;span style=&quot;color: rgb(255, 255, 255);&quot;&gt;extend&lt;/span&gt;" style="edgeStyle=none;html=1;fontSize=11;fontColor=#000000;dashed=1;strokeColor=#FF0000;entryX=0;entryY=0.5;entryDx=0;entryDy=0;exitX=1;exitY=0;exitDx=0;exitDy=0;" parent="1" source="31" target="44" edge="1">
                    <mxGeometry x="0.1001" y="12" relative="1" as="geometry">
                        <mxPoint x="289.4974746830585" y="485.85786437626894" as="sourcePoint"/>
                        <mxPoint x="340" y="490" as="targetPoint"/>
                        <Array as="points"/>
                        <mxPoint as="offset"/>
                    </mxGeometry>
                </mxCell>
                <mxCell id="46" value="&lt;span style=&quot;color: rgb(255, 255, 255);&quot;&gt;extend&lt;/span&gt;" style="edgeStyle=none;html=1;fontSize=11;fontColor=#000000;dashed=1;strokeColor=#FF0000;entryX=0;entryY=0.5;entryDx=0;entryDy=0;exitX=1;exitY=1;exitDx=0;exitDy=0;" parent="1" source="31" target="43" edge="1">
                    <mxGeometry x="-0.0945" y="13" relative="1" as="geometry">
                        <mxPoint x="289.4974746830585" y="514.1421356237311" as="sourcePoint"/>
                        <mxPoint x="360" y="487.09000000000003" as="targetPoint"/>
                        <Array as="points"/>
                        <mxPoint as="offset"/>
                    </mxGeometry>
                </mxCell>
                <mxCell id="47" value="&lt;span style=&quot;color: rgb(255, 255, 255);&quot;&gt;extend&lt;/span&gt;" style="edgeStyle=none;html=1;fontSize=11;fontColor=#000000;dashed=1;strokeColor=#FF0000;entryX=0.5;entryY=1;entryDx=0;entryDy=0;exitX=0.5;exitY=0;exitDx=0;exitDy=0;" parent="1" source="43" target="44" edge="1">
                    <mxGeometry y="10" relative="1" as="geometry">
                        <mxPoint x="424.99510818549356" y="520.0029887388187" as="sourcePoint"/>
                        <mxPoint x="505.62" y="547.09" as="targetPoint"/>
                        <Array as="points"/>
                        <mxPoint as="offset"/>
                    </mxGeometry>
                </mxCell>
                <mxCell id="48" value="affaire global" style="ellipse;whiteSpace=wrap;html=1;strokeColor=#FF0000;fillColor=#fff2cc;fontColor=#000000;" parent="1" vertex="1">
                    <mxGeometry x="170" y="720" width="140" height="40" as="geometry"/>
                </mxCell>
                <mxCell id="49" value="authentification" style="ellipse;whiteSpace=wrap;html=1;strokeColor=#FF0000;fillColor=#fff2cc;fontColor=#000000;" parent="1" vertex="1">
                    <mxGeometry x="170" y="620" width="140" height="40" as="geometry"/>
                </mxCell>
                <mxCell id="50" value="&lt;span style=&quot;color: rgb(255, 255, 255);&quot;&gt;include&lt;/span&gt;" style="edgeStyle=none;html=1;fontSize=11;fontColor=#000000;dashed=1;strokeColor=#FF0000;exitX=0.5;exitY=0;exitDx=0;exitDy=0;entryX=0.5;entryY=1;entryDx=0;entryDy=0;" parent="1" target="49" edge="1">
                    <mxGeometry x="-0.0945" y="13" relative="1" as="geometry">
                        <mxPoint x="240" y="720" as="sourcePoint"/>
                        <mxPoint x="450" y="739.66" as="targetPoint"/>
                        <Array as="points"/>
                        <mxPoint as="offset"/>
                    </mxGeometry>
                </mxCell>
                <mxCell id="51" value="définir les rôles" style="ellipse;whiteSpace=wrap;html=1;strokeColor=#FF0000;fillColor=#fff2cc;fontColor=#000000;" parent="1" vertex="1">
                    <mxGeometry x="405" y="780" width="150" height="40" as="geometry"/>
                </mxCell>
                <mxCell id="52" value="gestion du site" style="ellipse;whiteSpace=wrap;html=1;strokeColor=#FF0000;fillColor=#fff2cc;fontColor=#000000;" parent="1" vertex="1">
                    <mxGeometry x="405" y="660" width="150" height="40" as="geometry"/>
                </mxCell>
                <mxCell id="53" value="&lt;span style=&quot;color: rgb(255, 255, 255);&quot;&gt;extend&lt;/span&gt;" style="edgeStyle=none;html=1;fontSize=11;fontColor=#000000;dashed=1;strokeColor=#FF0000;entryX=0;entryY=0.5;entryDx=0;entryDy=0;exitX=1;exitY=0;exitDx=0;exitDy=0;" parent="1" source="48" target="52" edge="1">
                    <mxGeometry x="0.1001" y="12" relative="1" as="geometry">
                        <mxPoint x="289.4974746830585" y="725.8578643762689" as="sourcePoint"/>
                        <mxPoint x="340" y="730" as="targetPoint"/>
                        <Array as="points"/>
                        <mxPoint as="offset"/>
                    </mxGeometry>
                </mxCell>
                <mxCell id="54" value="&lt;span style=&quot;color: rgb(255, 255, 255);&quot;&gt;extend&lt;/span&gt;" style="edgeStyle=none;html=1;fontSize=11;fontColor=#000000;dashed=1;strokeColor=#FF0000;entryX=0;entryY=0.5;entryDx=0;entryDy=0;exitX=1;exitY=1;exitDx=0;exitDy=0;" parent="1" source="48" target="51" edge="1">
                    <mxGeometry x="-0.0945" y="13" relative="1" as="geometry">
                        <mxPoint x="289.4974746830585" y="754.1421356237311" as="sourcePoint"/>
                        <mxPoint x="360" y="727.09" as="targetPoint"/>
                        <Array as="points"/>
                        <mxPoint as="offset"/>
                    </mxGeometry>
                </mxCell>
                <mxCell id="55" value="&lt;span style=&quot;color: rgb(255, 255, 255);&quot;&gt;extend&lt;/span&gt;" style="edgeStyle=none;html=1;fontSize=11;fontColor=#000000;dashed=1;strokeColor=#FF0000;entryX=0.5;entryY=1;entryDx=0;entryDy=0;exitX=0.5;exitY=0;exitDx=0;exitDy=0;" parent="1" source="51" target="52" edge="1">
                    <mxGeometry y="10" relative="1" as="geometry">
                        <mxPoint x="424.99510818549356" y="760.0029887388187" as="sourcePoint"/>
                        <mxPoint x="505.62" y="787.09" as="targetPoint"/>
                        <Array as="points"/>
                        <mxPoint as="offset"/>
                    </mxGeometry>
                </mxCell>
            </root>
        </mxGraphModel>
    </diagram>
</mxfile>